<!--?xml version="1.0" encoding="utf-8"?-->
<!-- Svg Vector Icons : http://www.onlinewebfonts.com/icon -->

<svg version="1.1" xmlns="http://www.w3.org/2000/svg" xmlns:xlink="http://www.w3.org/1999/xlink" x="0px" y="0px" viewBox="0 0 256 256" enable-background="new 0 0 256 256" xml:space="preserve">
<metadata> Svg Vector Icons : http://www.onlinewebfonts.com/icon </metadata>
<g><g><g><path fill="#f7e15f" data-title="Layer 0" xs="0" d="M120.5,10.1c-18.3,1.6-32.6,5.6-47.4,13.3C51.6,34.6,33.3,53.2,22.4,74.9C14,91.8,10,108.7,10,128c0,19.3,4,36.3,12.4,53c9.6,19.2,25.8,36.7,44.4,48c38.7,23.6,88.4,22.6,126.4-2.7c49.1-32.6,66.6-95.9,41.4-149.1c-5.9-12.3-13-22.3-23.2-32.6c-18.9-18.9-41-29.9-67.7-33.7C138.8,10.3,124.5,9.7,120.5,10.1z M117.2,51.1c7.8,1.2,14.4,3.7,18.9,7.2c3.7,2.8,3.7,2.7,3.4,15.8l-0.2,11.5l-1.2,0.9c-1.1,0.9-2.4,0.9-4.2,0.2c-0.7-0.3-0.6,0,0.1,2.1c0.5,1.3,0.8,2.9,0.9,3.4c0,0.6,0.8,1.6,1.8,2.4c2.4,1.9,3,3.9,2.7,8.6c-0.3,4.8-1.3,7.2-4,9.7c-1.7,1.5-2.5,2.8-3.7,5.6c-1.8,4.3-5.1,9.4-8,12.3l-2.1,2l4.7,1c7.2,1.5,11.8,3.3,12.7,4.8c0.6,1.1,0.6,6,0.6,30.8c0,34,0.4,31.1-4.8,32.8c-11.7,3.8-37,4.6-54.3,1.6c-12-2.1-23.3-8.1-28.9-15.5c-4.7-6.2-6.1-11.7-6.6-25.3l-0.3-8.9l3.5-3.3c6.1-5.9,14.6-10.8,24.2-14.3c4.8-1.7,11.9-3.5,14-3.5c1.1,0,1.1-0.1-1.2-2.4c-3.1-3.3-6.2-8.1-7.9-12.5c-1.2-2.8-1.8-3.9-3.1-4.8c-0.9-0.6-2.2-2.1-2.9-3.3c-1.1-1.9-1.3-2.8-1.4-6.9c-0.2-5.3,0.5-7.5,2.7-8.8c1-0.6,1.4-1.3,1.8-3.1c0.3-1.3,0.6-2.8,0.7-3.3c0.3-0.8,0.1-0.9-1.1-0.7c-1,0.1-1.7-0.1-2.7-1L70,85.2V73.5V61.9l2.2-2c5.4-4.9,16-8.6,28.1-9.6C103.6,50,112.6,50.4,117.2,51.1z M209.8,119.6l1.2,1.1v39.8v39.8l-1.2,1.1l-1.2,1.1h-29.8h-29.8l-1.1-1.3l-1.1-1.3v-39.4c0-38.9,0-39.4,0.9-40.6c0.6-0.7,1.5-1.2,2.4-1.3c0.8-0.1,14.3-0.2,30-0.2l28.4,0L209.8,119.6z"/><path fill="#ffffff" data-title="Layer 1" xs="1" d="M94.4,58.5c-4.8,0.8-10.4,2.7-13.8,4.6l-2.8,1.5l-0.1,9.1l-0.1,9.1l2.5-2.3c3.2-2.9,6.9-4.4,10-4.1c1.3,0.2,4.2,1.3,7.2,2.8c7.3,3.6,6.9,3.6,13.5,0.2c4.8-2.4,6-2.9,8.1-2.9c3.3,0,7.9,2.2,10.9,5.3l2.3,2.4l-0.1-9.9l-0.1-9.8l-2.2-1.5c-3.8-2.5-14.2-5.2-20.3-5.2c-2.2,0-2.2,0-1.5,1c0.5,0.6,0.7,2,0.7,3.7v2.7h2.8c2.4,0,3,0.2,3.9,1.2c0.7,0.7,1.2,1.7,1.2,2.5c0,0.9-0.4,1.8-1.2,2.5c-0.9,1-1.6,1.2-3.9,1.2h-2.8v2.8c0,3.5-1.2,5.1-3.9,5.1c-2.4,0-3.5-1.7-3.5-5.1v-2.7h-2.7c-3.5,0-5.1-1.2-5.1-3.5c0-2.6,1.6-3.9,5.1-3.9h2.8v-2.7c0-1.7,0.3-3,0.7-3.7c0.7-1,0.7-1-1.5-1C99.2,57.9,96.5,58.2,94.4,58.5z"/><path fill="#ffffff" data-title="Layer 2" xs="2" d="M86.9,84.7c-3.3,1.6-4.9,4.7-5.6,10.4c-0.4,2.9-0.6,3.7-1.6,4.6c-0.7,0.6-1.5,1.1-1.9,1.1c-0.5,0-0.6,0.6-0.6,2.2c0,2.9,0.8,4.4,2.6,4.8c1.8,0.5,1.8,0.5,3.4,5c2.9,8,7.6,14.1,13.4,17.1c2.6,1.3,3.6,1.5,7.2,1.7c3.5,0.1,4.6,0,6.8-0.8c7-2.6,12.2-8.8,15.6-18.5c1.1-3.2,1.3-3.5,3.2-4.4c2-1,2.1-1.1,2.6-5c0.2-1.8,0.2-2.2-0.5-2.2c-0.4,0-1.3-0.6-2-1.3c-1-1-1.3-1.8-1.6-4.2c-0.5-4.2-2.3-7.7-5.1-9.6c-1.3-0.8-2.8-1.5-3.6-1.5c-0.8,0-3,0.9-5.4,2.3c-7.2,4.2-10.5,4.2-19.3-0.3c-2.7-1.3-5.1-2.5-5.2-2.5C89,83.7,88,84.1,86.9,84.7z"/><path fill="#ffffff" data-title="Layer 3" xs="3" d="M90.1,136.3c0.2,0.9,0.6,4.5,0.9,7.9c1,12.7,3.9,28.1,6.7,35.4c2,5.3,4.8,9.4,6.5,9.4c1.1,0,3.3-2.5,4.8-5.5c2.7-5.4,5.5-16.3,7.1-27.5c0.6-4.2,2.1-18.7,2.1-20.2c0-0.2-1,0.1-2.2,0.7c-8,4-17,3.8-24.2-0.6l-2.1-1.3L90.1,136.3z"/><path fill="#ffffff" data-title="Layer 4" xs="4" d="M76.2,143.2c-8.5,2.8-16.2,7.1-21.7,12l-2.2,1.9v4c0,7.8,1.3,15.5,3.4,19.9c1.4,2.9,7.3,8.8,10.7,10.5c3.9,2.1,12.6,4.6,19,5.5c4.2,0.6,8.5,0.8,18.7,0.8c13.2,0,18.4-0.4,25.1-1.9l3.1-0.7l-0.1-26.1l-0.1-26.2l-3.1-0.9c-1.7-0.5-3.2-0.8-3.3-0.7c-0.1,0.1-0.5,3.4-0.9,7.3c-2.2,20.8-6.8,36.9-12.3,43.5c-2,2.4-5.8,4.5-8,4.5c-7.9,0-14.5-12-18.3-33.2c-0.8-4.5-2.8-19.9-2.8-21.6C83.1,141.1,81.9,141.3,76.2,143.2z"/><path fill="#ffffff" data-title="Layer 5" xs="5" d="M154.2,128.2v2.1h24.7h24.7v-2.1v-2.1h-24.7h-24.7V128.2z"/><path fill="#ffffff" data-title="Layer 6" xs="6" d="M154.2,166.3v28.6h24.7h24.7v-28.6v-28.6h-24.7h-24.7V166.3z M178.2,146.7c1.5,1.6,1.4,3.7-0.2,5.2c-1.2,1-1.5,1.1-10,1.1c-9.3,0-10.6-0.2-11.5-2.2c-0.8-1.7-0.6-2.9,0.6-4.1c1.1-1.2,1.2-1.2,10.5-1.2h9.4L178.2,146.7z M185.5,158.1c1.5,1.4,1.4,3.7-0.1,5.2l-1.1,1.2h-12.5c-13.2,0-14.3-0.1-15.2-2.2c-0.8-1.7-0.6-2.9,0.6-4.1l1.1-1.2h13C184.1,157.1,184.4,157.1,185.5,158.1z M196.6,169.6c1.3,1.2,1.4,3.6,0.2,5l-0.9,1.1l-18.1,0.1c-19.3,0.1-20.2,0-21.1-2c-0.8-1.8-0.6-2.9,0.6-4.1l1.1-1.2h18.6C195.4,168.6,195.5,168.6,196.6,169.6z M177.8,180.6c1.2,0.6,1.9,3,1.4,4.3c-0.9,2.4-1.8,2.6-11.5,2.6h-9l-1.3-1.3c-1.6-1.6-1.7-3.1-0.4-4.8l0.9-1.2h9.5C172.7,180.2,177.3,180.4,177.8,180.6z"/></g></g></g>
</svg>